<svg width="67" height="113" viewBox="0 0 67 113" fill="none" xmlns="http://www.w3.org/2000/svg"><g clip-path="url(#clip0)" fill="#A1A1A3"><path d="M19.562 32.575h13.844c3.368 0 7.81 0 10.103 1.393 2.516 1.496 4.49 4.22 4.49 7.968 0 4.061-2.134 7.11-5.668 8.551v.111c4.705.963 7.27 4.49 7.27 9.196 0 5.612-4.013 10.962-11.6 10.962H19.56V32.575zm5.072 16.409h10.165c5.772 0 8.128-2.086 8.128-6.098 0-5.294-3.742-6.043-8.128-6.043H24.634v12.14zm0 17.482h12.73c4.378 0 7.164-2.674 7.164-6.839 0-4.975-4.012-6.361-8.288-6.361H24.634v13.2z"/><path d="M62.593 51.672c0 16.035-13 29.034-29.041 29.034-16.035 0-29.034-13-29.034-29.034s13-29.034 29.034-29.034c16.041.007 29.04 13 29.04 29.034zM33.552 18.21C15.085 18.21.11 33.185.11 51.651c0 18.467 14.974 33.442 33.44 33.442C52.027 85.093 67 70.118 67 51.65c0-18.466-14.974-33.44-33.448-33.44zM66.93 92.154H.18v4.386h66.75v-4.386zM64.845 87.324c.083 0 .16-.007.236-.007a.802.802 0 00.194-.042.332.332 0 00.138-.118.394.394 0 00.049-.214.357.357 0 00-.042-.187.245.245 0 00-.118-.104.521.521 0 00-.166-.056c-.062-.007-.118-.007-.187-.007h-.478v.742h.374v-.007zm.16-1.033c.277 0 .478.056.616.167.132.11.201.277.201.505 0 .215-.062.36-.173.465a.822.822 0 01-.444.173l.666 1.025h-.388l-.638-1.004h-.381v1.004h-.367v-2.328h.907v-.007zm-1.643 1.83a1.626 1.626 0 00.866.908c.194.083.416.124.645.124.235 0 .45-.041.644-.125.201-.09.374-.208.52-.36.145-.152.263-.333.34-.547a1.787 1.787 0 00-.34-1.885 1.648 1.648 0 00-1.164-.485 1.646 1.646 0 00-1.164.485 1.574 1.574 0 00-.347.54 1.76 1.76 0 00-.125.672c0 .243.042.472.125.673zm-.326-1.462a1.968 1.968 0 011.068-1.04c.242-.104.505-.152.769-.152.277 0 .533.048.783.152.235.104.45.236.623.416.18.18.333.388.43.624.11.242.16.505.16.79 0 .284-.05.547-.16.79-.104.249-.25.457-.43.637-.18.187-.388.319-.623.423-.25.097-.506.145-.783.145-.27 0-.527-.048-.77-.145a1.898 1.898 0 01-.637-.423 1.953 1.953 0 01-.43-.638 1.87 1.87 0 01-.152-.79 1.698 1.698 0 01.152-.79zM8.267 3.506a2.574 2.574 0 00-.59-.665 2.766 2.766 0 00-1.739-.61c-.595 0-1.101.118-1.524.347-.416.228-.755.54-1.012.928a4.11 4.11 0 00-.568 1.33 6.585 6.585 0 00-.18 1.539c0 .506.055.998.18 1.476.118.478.305.908.568 1.296.257.38.596.693 1.012.921.416.229.922.347 1.524.347.811 0 1.449-.25 1.9-.742.456-.499.734-1.15.838-1.96h2.57c-.069.755-.242 1.434-.526 2.044a4.813 4.813 0 01-1.116 1.552 4.827 4.827 0 01-1.621.984 6.024 6.024 0 01-2.045.34c-.921 0-1.753-.16-2.494-.486a5.294 5.294 0 01-1.871-1.33A5.86 5.86 0 01.409 8.828 7.23 7.23 0 010 6.375c0-.9.139-1.74.409-2.515a5.99 5.99 0 011.164-2.017A5.282 5.282 0 013.443.492C4.179.166 5.01 0 5.939 0c.666 0 1.296.097 1.885.284a5.117 5.117 0 011.587.839c.464.367.852.817 1.157 1.358.305.54.5 1.164.575 1.857h-2.57a2.117 2.117 0 00-.305-.832zM14.704 10.262c.36.347.88.527 1.552.527.485 0 .901-.118 1.255-.36.346-.243.56-.5.644-.77h2.113c-.34 1.047-.859 1.802-1.559 2.253-.7.45-1.545.679-2.536.679-.686 0-1.31-.111-1.857-.333a3.973 3.973 0 01-1.407-.935 4.17 4.17 0 01-.886-1.456 5.328 5.328 0 01-.312-1.857c0-.651.104-1.26.318-1.822.215-.561.52-1.053.915-1.462a4.318 4.318 0 011.414-.97 4.538 4.538 0 011.815-.354c.742 0 1.393.146 1.947.43a3.87 3.87 0 011.358 1.157c.354.485.61 1.04.77 1.656a6.03 6.03 0 01.166 1.947h-6.306c.042.756.236 1.324.596 1.67zm2.716-4.6c-.29-.313-.727-.472-1.31-.472-.38 0-.7.062-.955.194a1.874 1.874 0 00-.61.478 1.78 1.78 0 00-.319.61 2.873 2.873 0 00-.11.575h3.9c-.11-.61-.311-1.067-.596-1.386zM23.782 3.617V5.24h.034c.111-.27.264-.52.457-.756a2.95 2.95 0 01.659-.589c.25-.16.513-.29.797-.38a2.88 2.88 0 01.88-.132c.16 0 .332.027.526.083v2.23c-.11-.02-.25-.04-.409-.054-.159-.014-.311-.028-.457-.028-.436 0-.81.076-1.115.222a1.906 1.906 0 00-.735.602 2.35 2.35 0 00-.395.887c-.076.34-.118.707-.118 1.102v3.943H21.51V3.617h2.273zM33.559 3.617v1.608h-1.76v4.33c0 .41.07.68.2.811.133.132.41.201.812.201.138 0 .263-.007.388-.014.124-.013.242-.027.353-.048v1.857c-.201.035-.43.055-.68.07-.248.013-.491.02-.727.02-.374 0-.727-.028-1.053-.076a2.363 2.363 0 01-.88-.298 1.583 1.583 0 01-.603-.624c-.145-.27-.222-.623-.222-1.067V5.225h-1.455V3.617h1.455V.997h2.398v2.62h1.774zM34.952 2.266V.284h2.397v1.982h-2.397zm2.404 1.351v8.738H34.96V3.617h2.397zM38.306 5.225V3.617h1.434v-.679c0-.776.242-1.414.727-1.912.486-.5 1.22-.742 2.197-.742.215 0 .43.007.645.028.214.014.422.034.623.041v1.795a7.057 7.057 0 00-.873-.048c-.326 0-.561.076-.7.228-.138.153-.208.41-.208.77v.526h1.656v1.608h-1.656v7.137h-2.404V5.225h-1.441zM45.429 2.266V.284h2.397v1.982H45.43zm2.397 1.351v8.738H45.43V3.617h2.397zM51.617 10.262c.36.347.88.527 1.552.527.485 0 .9-.118 1.254-.36.347-.243.561-.5.645-.77h2.113c-.34 1.047-.86 1.802-1.552 2.253-.7.45-1.545.679-2.536.679-.686 0-1.31-.111-1.857-.333a3.972 3.972 0 01-1.407-.935 4.17 4.17 0 01-.887-1.456 5.328 5.328 0 01-.312-1.857c0-.651.111-1.26.319-1.822.215-.561.52-1.053.915-1.462a4.32 4.32 0 011.413-.97 4.537 4.537 0 011.816-.354c.741 0 1.393.146 1.947.43a3.869 3.869 0 011.358 1.157c.353.485.61 1.04.77 1.656.159.617.214 1.268.172 1.947h-6.305c.02.756.222 1.324.582 1.67zm2.71-4.6c-.285-.313-.728-.472-1.31-.472-.382 0-.7.062-.957.194a1.874 1.874 0 00-.61.478 1.78 1.78 0 00-.318.61 2.873 2.873 0 00-.111.575h3.901c-.104-.61-.305-1.067-.596-1.386zM64.616 11.24c-.284.47-.651.817-1.108 1.025-.458.208-.97.312-1.546.312-.651 0-1.226-.125-1.725-.381a3.422 3.422 0 01-1.227-1.033 4.85 4.85 0 01-.727-1.497 6.172 6.172 0 01-.243-1.76c0-.589.083-1.15.243-1.697.16-.548.409-1.026.727-1.449a3.616 3.616 0 011.206-1.004c.485-.257 1.046-.381 1.69-.381.52 0 1.013.11 1.477.332.471.222.838.54 1.108.97h.035V.284h2.398v12.071H64.65V11.24h-.035zm-.104-4.318a2.543 2.543 0 00-.346-.88 1.937 1.937 0 00-.638-.616c-.256-.16-.589-.236-.977-.236s-.727.076-.998.236c-.27.16-.485.367-.65.623-.16.257-.278.555-.354.887a4.641 4.641 0 00.007 2.051 2.8 2.8 0 00.38.908c.174.264.396.478.659.645.263.166.582.242.956.242.395 0 .72-.076.991-.236.264-.159.478-.367.638-.637.16-.263.27-.568.34-.9a5.082 5.082 0 00-.007-2.086zM6.035 105.16c-.117-.845-.928-1.49-1.857-1.49-1.676 0-2.307 1.428-2.307 2.917 0 1.414.63 2.841 2.307 2.841 1.144 0 1.788-.783 1.927-1.905H7.92c-.194 2.12-1.656 3.478-3.742 3.478-2.633 0-4.178-1.967-4.178-4.414 0-2.522 1.545-4.49 4.178-4.49 1.871 0 3.437 1.095 3.666 3.063H6.035zM11.822 104.481c1.94 0 3.187 1.282 3.187 3.25 0 1.954-1.247 3.236-3.188 3.236-1.926 0-3.18-1.289-3.18-3.236 0-1.968 1.247-3.25 3.18-3.25zm0 5.211c1.157 0 1.496-.991 1.496-1.961 0-.991-.346-1.975-1.496-1.975-1.144 0-1.49.991-1.49 1.975 0 .977.346 1.961 1.49 1.961zM16.055 104.633h1.608v1.144h.028c.305-.776 1.143-1.31 1.968-1.31.117 0 .263.021.367.056v1.572a3.323 3.323 0 00-.61-.055c-1.24 0-1.67.894-1.67 1.975v2.772h-1.69v-6.154zM20.677 104.647h1.608v.783h.02c.402-.651 1.068-.949 1.83-.949 1.933 0 2.8 1.559 2.8 3.305 0 1.642-.901 3.181-2.703 3.181-.735 0-1.441-.319-1.843-.929h-.028v2.931h-1.69v-8.322h.006zm4.573 3.098c0-.977-.394-1.989-1.475-1.989-1.11 0-1.462.991-1.462 1.989 0 .997.38 1.954 1.475 1.954 1.102-.007 1.462-.957 1.462-1.954zM30.649 104.481c1.94 0 3.194 1.282 3.194 3.25 0 1.954-1.254 3.236-3.194 3.236-1.927 0-3.174-1.289-3.174-3.236 0-1.968 1.247-3.25 3.174-3.25zm0 5.211c1.157 0 1.503-.991 1.503-1.961 0-.991-.346-1.975-1.503-1.975-1.144 0-1.49.991-1.49 1.975 0 .977.346 1.961 1.49 1.961zM34.882 104.633h1.608v1.144h.028c.305-.776 1.143-1.31 1.96-1.31.118 0 .264.021.368.056v1.572a3.21 3.21 0 00-.61-.055c-1.24 0-1.67.894-1.67 1.975v2.772h-1.69v-6.154h.006zM39.345 106.539c.097-1.587 1.51-2.058 2.896-2.058 1.227 0 2.703.27 2.703 1.746v3.201c0 .562.055 1.116.215 1.372H43.44a2.51 2.51 0 01-.118-.595c-.533.561-1.316.762-2.072.762-1.164 0-2.092-.582-2.092-1.843 0-1.393 1.046-1.726 2.093-1.871 1.039-.153 2.002-.118 2.002-.811 0-.728-.506-.832-1.095-.832-.644 0-1.06.264-1.122.929h-1.691zm3.908 1.247c-.29.25-.88.264-1.407.361-.526.103-.997.284-.997.907 0 .631.485.783 1.039.783 1.317 0 1.372-1.046 1.372-1.413v-.638h-.007zM48.36 104.647h1.24v1.13h-1.24v3.049c0 .575.145.713.714.713.18 0 .346-.014.526-.048v1.323a6.325 6.325 0 01-.99.063c-1.033 0-1.94-.243-1.94-1.462v-3.631h-1.026v-1.13h1.025v-1.843h1.691v1.836zM52.56 103.698h-1.692v-1.393h1.691v1.393zm-1.692.949h1.691v6.153h-1.69v-6.153zM56.876 104.481c1.94 0 3.195 1.282 3.195 3.25 0 1.954-1.255 3.236-3.195 3.236-1.926 0-3.173-1.289-3.173-3.236-.007-1.968 1.247-3.25 3.173-3.25zm0 5.211c1.157 0 1.504-.991 1.504-1.961 0-.991-.347-1.975-1.504-1.975-1.143 0-1.49.991-1.49 1.975 0 .977.347 1.961 1.49 1.961zM61.158 104.647h1.608v.859h.035c.43-.692 1.164-1.025 1.885-1.025 1.794 0 2.252 1.012 2.252 2.536v3.783h-1.691v-3.478c0-1.012-.298-1.511-1.081-1.511-.922 0-1.31.513-1.31 1.767v3.229h-1.69v-6.16h-.008z"/></g><defs><clipPath id="clip0"><path fill="#fff" d="M0 0h67v112.969H0z"/></clipPath></defs></svg>
