<svg width="758" height="631" viewBox="0 0 758 631" fill="none" xmlns="http://www.w3.org/2000/svg"><g filter="url(#filter0_d)"><rect x="502.25" y="275.365" width="215.488" height="166.064" rx="6" transform="rotate(-15 502.25 275.365)" fill="#fff"/><path fill="#E6F0FF" d="M540.159 348.098l60.152-16.118 2.047 7.639-60.152 16.118zM543.74 361.465l60.152-16.118 2.047 7.639-60.152 16.118zM547.322 374.832l52.514-14.071 2.046 7.639-52.513 14.07z"/><path fill="#9AC5FF" d="M535.042 329.002l40.101-10.745 2.047 7.638-40.101 10.746z"/><path fill-rule="evenodd" clip-rule="evenodd" d="M618.543 309.809c-2.05-7.653 1.855-15.556 9.36-18.094 6.782-2.293 16.3-5.266 28.711-8.592 12.411-3.325 22.14-5.509 29.16-6.914 7.769-1.555 15.102 3.336 17.153 10.989l26.648 99.454-84.383 22.61-15.696-58.578-1.548.415-5.947-22.192 1.548-.415-5.006-18.683zm12.267 45.778l-1.549.415 3.388 12.645 1.549-.415-3.388-12.645z" fill="#9AC5FF"/><g clip-path="url(#clip0)"><path d="M624.553 315.306a4 4 0 0 1 2.828-4.899l69.547-18.635a4 4 0 0 1 4.899 2.829l58.752 219.265a4 4 0 0 1-2.829 4.899L688.204 537.4a4 4 0 0 1-4.899-2.829l-58.752-219.265z" fill="#fff"/><path fill="#2983FF" fill-opacity=".1" d="M627.45 314.53l71.479-19.153 29.246 109.15-71.478 19.153z"/></g><rect x="649.123" y="293.875" width="15.495" height="2.672" rx="1.336" transform="rotate(-15 649.123 293.875)" fill="#E6F0FF"/><rect x="666.154" y="289.311" width="2.672" height="2.672" rx="1.336" transform="rotate(-15 666.154 289.311)" fill="#E6F0FF"/></g><g filter="url(#filter1_d)"><rect x="4" y="218.528" width="215.488" height="166.064" rx="6" transform="rotate(-15 4 218.528)" fill="#fff"/><rect x="18.528" y="226.915" width="91.928" height="142.341" rx="4" transform="rotate(-15 18.528 226.915)" fill="#E6F0FF"/><rect x="114.962" y="201.075" width="91.928" height="67.216" rx="4" transform="rotate(-15 114.962 201.075)" fill="#C0DBFF"/><rect x="134.406" y="273.64" width="91.928" height="67.216" rx="4" transform="rotate(-15 134.406 273.64)" fill="#E6F0FF"/></g><g filter="url(#filter2_d)"><rect x="454.664" y="97.772" width="215.488" height="166.064" rx="6" transform="rotate(-15 454.664 97.772)" fill="#fff"/><rect x="496.593" y="124.402" width="109.721" height="7.908" rx="3.954" transform="rotate(-15 496.593 124.402)" fill="#C0DBFF"/><rect x="505.803" y="158.774" width="153.214" height="7.908" rx="3.954" transform="rotate(-15 505.803 158.774)" fill="#C0DBFF"/><rect x="515.013" y="193.147" width="68.205" height="7.908" rx="3.954" transform="rotate(-15 515.013 193.147)" fill="#C0DBFF"/><rect x="500.686" y="139.678" width="79.078" height="7.908" rx="3.954" transform="rotate(-15 500.686 139.678)" fill="#9AC5FF"/><rect x="509.896" y="174.051" width="91.928" height="7.908" rx="3.954" transform="rotate(-15 509.896 174.051)" fill="#9AC5FF"/><rect x="519.106" y="208.424" width="125.537" height="7.908" rx="3.954" transform="rotate(-15 519.106 208.424)" fill="#9AC5FF"/><path stroke="#E6F0FF" stroke-width="2" d="M483.543 117.665l29.165 108.847"/></g><g filter="url(#filter3_d)"><rect x="264.126" y="288.002" width="215.488" height="166.064" rx="6" transform="rotate(-15 264.126 288.002)" fill="#fff"/><path fill="#C0DBFF" d="M436.762 302.122l31.509-8.443 2.046 7.639-31.508 8.443zM302.272 346.345l28.644-7.675 2.046 7.639-28.643 7.675z"/><path fill="#E6F0FF" d="M305.854 359.712l20.05-5.373 2.047 7.639-20.05 5.373zM379.191 400.439l32.463-8.698 2.047 7.638-32.463 8.699zM440.344 315.489l22.916-6.14 2.046 7.638-22.915 6.14z"/><path fill="#C0DBFF" d="M375.61 387.072l42.965-11.513 2.047 7.639-42.965 11.513z"/><path fill-rule="evenodd" clip-rule="evenodd" d="M374.545 295.257c-20.566 5.51-32.77 26.649-27.26 47.214 5.511 20.566 26.649 32.77 47.215 27.26 20.246-5.425 32.389-25.997 27.503-46.257l-37.225 9.975-10.233-38.192z" fill="#E6F0FF"/><mask id="a" maskUnits="userSpaceOnUse" x="350" y="288" width="77" height="78"><path fill-rule="evenodd" clip-rule="evenodd" d="M426.465 317.162c-5.511-20.566-26.65-32.77-47.215-27.26-20.565 5.511-32.77 26.649-27.259 47.215 5.425 20.246 25.996 32.389 46.256 27.503l-9.974-37.225 38.192-10.233z" fill="#E6F0FF"/></mask><g mask="url(#a)"><path fill="#9AC5FF" d="M433.331 254.945l16.63 62.062-59.198 15.862-16.63-62.062z"/></g></g><g filter="url(#filter4_d)"><rect x="311.711" y="465.594" width="215.488" height="166.064" rx="6" transform="rotate(-15 311.711 465.594)" fill="#fff"/><path fill="#E6F0FF" d="M450.76 507.134l69.7-18.676 2.047 7.638-69.7 18.677zM454.342 520.501l69.7-18.676 2.047 7.638-69.7 18.677zM457.923 533.868l52.514-14.071 2.046 7.639-52.513 14.07z"/><path fill="#9AC5FF" d="M445.643 488.038l40.101-10.745 2.047 7.638-40.101 10.746z"/><rect x="326.239" y="473.982" width="91.928" height="142.341" rx="4" transform="rotate(-15 326.239 473.982)" fill="#E6F0FF"/><path fill="#C0DBFF" d="M384.779 547.327l17.187-4.605 2.046 7.638-17.186 4.606z"/><path d="M420.106 537.861c-3.956-14.765-19.133-23.527-33.898-19.571-14.765 3.957-23.527 19.133-19.57 33.898" stroke="#C0DBFF" stroke-width="9"/><path d="M366.638 552.188c-3.957-14.765 4.805-29.941 19.57-33.898a27.588 27.588 0 0 1 20.642 2.561" stroke="#9AC5FF" stroke-width="9"/></g><g filter="url(#filter5_d)"><rect x="51.586" y="396.119" width="215.488" height="166.064" rx="6" transform="rotate(-15 51.586 396.119)" fill="#fff"/><path fill="#9AC5FF" d="M76.31 412.008l101.209-27.119 2.046 7.639-101.208 27.119z"/><path fill="#E6F0FF" d="M102.501 429.551l77.339-20.723 2.047 7.639-77.34 20.723zM107.618 448.647l90.705-24.304 2.047 7.638-90.705 24.305zM121.433 500.206l90.705-24.304 2.047 7.638-90.705 24.305zM112.735 467.742l103.118-27.63 2.047 7.638-103.118 27.63zM116.316 481.11l64.926-17.397 2.046 7.639-64.925 17.397z"/><path d="M89.675 431.333l6.8 3.926-3.926 6.799-1.48-.855 2.459-4.268-7.477 2.004-.444-1.655 7.477-2.004-4.263-2.466.854-1.481zM94.792 450.429l6.799 3.926-3.925 6.799-1.48-.855 2.458-4.268-7.477 2.004-.443-1.655 7.477-2.004-4.264-2.466.855-1.481zM108.607 501.988l6.799 3.926-3.925 6.799-1.48-.855 2.459-4.268-7.477 2.004-.444-1.655 7.477-2.004-4.263-2.466.854-1.481zM99.909 469.525l6.799 3.926-3.926 6.799-1.48-.855 2.459-4.268-7.477 2.004-.443-1.655 7.477-2.004-4.264-2.466.855-1.481z" fill="#000"/></g><g filter="url(#filter6_d)"><rect x="178.12" y="128.54" width="281.068" height="216.603" rx="6" transform="rotate(-15 178.12 128.54)" fill="#fff"/></g><path fill="#E7E7E8" d="M217.043 174.172l222.921-59.732 2.67 9.963-222.922 59.732zM221.715 191.607l150.69-40.377 2.67 9.962-150.69 40.378z"/><path fill="#A1A1A3" d="M210.369 149.263l52.306-14.015 2.67 9.962-52.307 14.016z"/><rect x="235.008" y="239.284" width="29.943" height="29.943" rx="3.5" transform="rotate(-15 235.008 239.284)" fill="#8678EF" stroke="#6B389C"/><rect x="244.407" y="276.292" width="30.943" height="30.943" rx="4" transform="rotate(-15 244.407 276.292)" fill="#FFDBC8"/><rect x="271.757" y="228.92" width="30.943" height="30.943" rx="4" transform="rotate(-15 271.757 228.92)" fill="#00A5A7"/><rect x="281.768" y="266.281" width="30.943" height="30.943" rx="4" transform="rotate(-15 281.768 266.281)" fill="#C0DBFF"/><rect x="309.118" y="218.909" width="30.943" height="30.943" rx="4" transform="rotate(-15 309.118 218.909)" fill="#2983FF"/><path d="M399.163 268.995l.804-12.74 18.603-4.783 6.849 10.772 11.681-3.004-31.029-46.985-14.046 3.612-4.542 56.131 11.68-3.003zm1.385-21.961l1.328-21.14.403-.104 11.36 17.879-13.091 3.365zM452.545 256.047c5.714-1.469 8.774-4.913 9.736-8.998l.302-.077 1.379 5.361 10.17-2.614-6.706-26.08c-2.369-9.213-11.169-11.084-19.778-8.87-9.264 2.382-14.217 8.379-13.89 15.809l10.126-1.744c.07-2.756 1.875-5.233 5.726-6.223 3.65-.939 6.212.362 7.028 3.534l.039.151c.641 2.492-1.919 3.499-8.472 5.881-7.471 2.673-13.683 7.008-11.463 15.642 1.968 7.653 8.427 10.125 15.803 8.228zm1.168-8.19c-3.298.848-6.059-.079-6.816-3.025-.777-3.021 1.334-5.147 4.974-6.646 2.257-.929 5.941-2.467 7.004-3.653l1.055 4.103c1.042 4.053-1.51 8.01-6.217 9.221z" fill="#A1A1A3"/><defs><filter id="filter0_d" x="498.25" y="216.592" width="259.126" height="224.178" filterUnits="userSpaceOnUse" color-interpolation-filters="sRGB"><feFlood flood-opacity="0" result="BackgroundImageFix"/><feColorMatrix in="SourceAlpha" values="0 0 0 0 0 0 0 0 0 0 0 0 0 0 0 0 0 0 127 0"/><feOffset dy="1"/><feGaussianBlur stdDeviation="2"/><feColorMatrix values="0 0 0 0 0 0 0 0 0 0 0 0 0 0 0 0 0 0 0.08 0"/><feBlend in2="BackgroundImageFix" result="effect1_dropShadow"/><feBlend in="SourceGraphic" in2="effect1_dropShadow" result="shape"/></filter><filter id="filter1_d" x="0" y="159.755" width="259.126" height="224.178" filterUnits="userSpaceOnUse" color-interpolation-filters="sRGB"><feFlood flood-opacity="0" result="BackgroundImageFix"/><feColorMatrix in="SourceAlpha" values="0 0 0 0 0 0 0 0 0 0 0 0 0 0 0 0 0 0 127 0"/><feOffset dy="1"/><feGaussianBlur stdDeviation="2"/><feColorMatrix values="0 0 0 0 0 0 0 0 0 0 0 0 0 0 0 0 0 0 0.08 0"/><feBlend in2="BackgroundImageFix" result="effect1_dropShadow"/><feBlend in="SourceGraphic" in2="effect1_dropShadow" result="shape"/></filter><filter id="filter2_d" x="450.664" y="39" width="259.126" height="224.178" filterUnits="userSpaceOnUse" color-interpolation-filters="sRGB"><feFlood flood-opacity="0" result="BackgroundImageFix"/><feColorMatrix in="SourceAlpha" values="0 0 0 0 0 0 0 0 0 0 0 0 0 0 0 0 0 0 127 0"/><feOffset dy="1"/><feGaussianBlur stdDeviation="2"/><feColorMatrix values="0 0 0 0 0 0 0 0 0 0 0 0 0 0 0 0 0 0 0.08 0"/><feBlend in2="BackgroundImageFix" result="effect1_dropShadow"/><feBlend in="SourceGraphic" in2="effect1_dropShadow" result="shape"/></filter><filter id="filter3_d" x="260.126" y="229.23" width="259.126" height="224.178" filterUnits="userSpaceOnUse" color-interpolation-filters="sRGB"><feFlood flood-opacity="0" result="BackgroundImageFix"/><feColorMatrix in="SourceAlpha" values="0 0 0 0 0 0 0 0 0 0 0 0 0 0 0 0 0 0 127 0"/><feOffset dy="1"/><feGaussianBlur stdDeviation="2"/><feColorMatrix values="0 0 0 0 0 0 0 0 0 0 0 0 0 0 0 0 0 0 0.08 0"/><feBlend in2="BackgroundImageFix" result="effect1_dropShadow"/><feBlend in="SourceGraphic" in2="effect1_dropShadow" result="shape"/></filter><filter id="filter4_d" x="307.711" y="406.822" width="259.126" height="224.178" filterUnits="userSpaceOnUse" color-interpolation-filters="sRGB"><feFlood flood-opacity="0" result="BackgroundImageFix"/><feColorMatrix in="SourceAlpha" values="0 0 0 0 0 0 0 0 0 0 0 0 0 0 0 0 0 0 127 0"/><feOffset dy="1"/><feGaussianBlur stdDeviation="2"/><feColorMatrix values="0 0 0 0 0 0 0 0 0 0 0 0 0 0 0 0 0 0 0.08 0"/><feBlend in2="BackgroundImageFix" result="effect1_dropShadow"/><feBlend in="SourceGraphic" in2="effect1_dropShadow" result="shape"/></filter><filter id="filter5_d" x="47.586" y="337.347" width="259.126" height="224.178" filterUnits="userSpaceOnUse" color-interpolation-filters="sRGB"><feFlood flood-opacity="0" result="BackgroundImageFix"/><feColorMatrix in="SourceAlpha" values="0 0 0 0 0 0 0 0 0 0 0 0 0 0 0 0 0 0 127 0"/><feOffset dy="1"/><feGaussianBlur stdDeviation="2"/><feColorMatrix values="0 0 0 0 0 0 0 0 0 0 0 0 0 0 0 0 0 0 0.08 0"/><feBlend in2="BackgroundImageFix" result="effect1_dropShadow"/><feBlend in="SourceGraphic" in2="effect1_dropShadow" result="shape"/></filter><filter id="filter6_d" x="118.12" y=".794" width="487.552" height="441.968" filterUnits="userSpaceOnUse" color-interpolation-filters="sRGB"><feFlood flood-opacity="0" result="BackgroundImageFix"/><feColorMatrix in="SourceAlpha" values="0 0 0 0 0 0 0 0 0 0 0 0 0 0 0 0 0 0 127 0"/><feOffset dx="20" dy="25"/><feGaussianBlur stdDeviation="40"/><feColorMatrix values="0 0 0 0 0.2625 0 0 0 0 0.2625 0 0 0 0 0.2625 0 0 0 0.1 0"/><feBlend in2="BackgroundImageFix" result="effect1_dropShadow"/><feBlend in="SourceGraphic" in2="effect1_dropShadow" result="shape"/></filter><clipPath id="clip0"><path transform="rotate(-15 623.208 310.495)" fill="#fff" d="M623.208 310.495h79.078V411.32h-79.078z"/></clipPath></defs></svg>
