<svg width="357" height="37" viewBox="0 0 357 37" fill="none" xmlns="http://www.w3.org/2000/svg"><g clip-path="url(#clip0)"><path d="M45.64 9.58c-7.58 0-13.08 5.64-13.08 13.4 0 7.76 5.44 13.3 13.34 13.3a12.76 12.76 0 009.61-3.8c.504-.5.8-1.171.83-1.88a2.143 2.143 0 00-1.378-2.053 2.139 2.139 0 00-.862-.137 2.587 2.587 0 00-1.83.83 8.752 8.752 0 01-6.37 2.67 7.9 7.9 0 01-8-7.38H55c1.86 0 2.77-.87 2.77-2.66a9.627 9.627 0 00-.11-1.66c-.92-6.65-5.42-10.63-12.02-10.63zm0 4.16c4.11 0 6.75 2.62 6.91 6.85H37.89a7.64 7.64 0 017.75-6.85zM74.12 9.58a9.3 9.3 0 00-8.19 4.73v-1.7c0-2.63-2-2.76-2.45-2.76A2.44 2.44 0 0061 12.61v20.53a2.62 2.62 0 105.22 0v-11c0-4.79 2.71-8.14 6.59-8.14s5.6 2.47 5.6 7.55v11.59a2.621 2.621 0 004.554 2.03 2.62 2.62 0 00.656-2.03V19.91c-.02-4.99-2.51-10.33-9.5-10.33zM107.2 9.85a2.718 2.718 0 00-2.6 2.08l-7.14 18-7.08-18a2.76 2.76 0 00-2.65-2.08 2.56 2.56 0 00-2.61 2.5 3.56 3.56 0 00.33 1.47l8.2 19.37c1 2.33 2.58 2.82 3.76 2.82 1.18 0 2.78-.49 3.76-2.82l8.26-19.47c.197-.452.306-.937.32-1.43a2.437 2.437 0 00-1.582-2.287 2.441 2.441 0 00-.968-.153zM122.36 9.58a14.831 14.831 0 00-8.74 2.62 2.368 2.368 0 00-1.17 2.05 1.99 1.99 0 00.557 1.466 2.002 2.002 0 001.443.614 2.84 2.84 0 001.55-.55 10.25 10.25 0 015.86-1.94c3.85 0 6.06 2 6.06 5.39v.56c-8.65 0-17.45 1.06-17.45 8.59 0 5.42 4.63 7.84 9.22 7.84a9.72 9.72 0 008.47-4.22v1.32a2.4 2.4 0 002.45 2.68 2.35 2.35 0 002.39-2.65V19.54c0-6.23-4-9.96-10.64-9.96zm4.5 14.05H128v1.2c0 4.4-2.79 7.24-7.12 7.24-1.18 0-5-.28-5-3.8-.06-4.16 6.24-4.64 10.98-4.64zM146.54 14.58a2.168 2.168 0 002.425-2.155 2.163 2.163 0 00-.729-1.622 2.164 2.164 0 00-1.696-.533h-4.69V5.52a2.61 2.61 0 00-.65-2.016 2.607 2.607 0 00-1.935-.863 2.598 2.598 0 00-2.585 2.879v22.54c0 5.2 2.57 8 7.42 8a8.38 8.38 0 003.29-.59 2.35 2.35 0 001.44-2.07 2.013 2.013 0 00-.135-.81 2.014 2.014 0 00-1.136-1.135 1.999 1.999 0 00-.809-.135c-.315.016-.628.07-.93.16a3.91 3.91 0 01-1.08.16c-2 0-2.89-1.29-2.89-4.06v-13h4.69zM163.78 9.58c-7.88 0-13.61 5.59-13.61 13.29a13.28 13.28 0 003.91 9.63 13.759 13.759 0 009.7 3.78 13.248 13.248 0 0013.67-13.41c0-7.7-5.75-13.29-13.67-13.29zm0 22.27c-5.41 0-8.23-4.51-8.23-9 0-6.13 4.27-8.92 8.23-8.92 3.96 0 8.22 2.81 8.22 8.94 0 6.13-4.25 8.98-8.22 8.98z" fill="#141614"/><path d="M23.64 7.21C19.45 2.3 5.89 11.82 6 24.07a.58.58 0 01-.57.57.58.58 0 01-.49-.28 13.13 13.13 0 01-.52-9.65.53.53 0 00-.9-.52 13.13 13.13 0 009.67 22c18.46-.37 14.19-24.6 10.45-28.98z" fill="#80B341"/><path fill-rule="evenodd" clip-rule="evenodd" d="M192.78 9.48a9.87 9.87 0 00-5.59 1.71 11.44 11.44 0 00-4 4.7 14.902 14.902 0 00-1.43 6.53v1a14.343 14.343 0 001.48 6.5 11.751 11.751 0 004.13 4.66 10.682 10.682 0 005.84 1.71A9.998 9.998 0 00202 32a.757.757 0 00.016-.846.76.76 0 00-.206-.214l-.85-.61a.78.78 0 00-1.06.15 7.677 7.677 0 01-2.77 2.3 9.05 9.05 0 01-3.85.74 7.81 7.81 0 01-4.34-1.31 9.004 9.004 0 01-3.18-3.67 11.506 11.506 0 01-1.18-5.16v-.55H202a.782.782 0 00.77-.77v-1.27a11.85 11.85 0 00-2.77-8.15 9.303 9.303 0 00-7.24-3.16h.02zm-8.07 10.61a10.338 10.338 0 012.59-5.45 7.155 7.155 0 015.48-2.41 6.711 6.711 0 013.69 1.06 7.329 7.329 0 012.61 3 9.394 9.394 0 011 3.79l-15.37.01zM208 0h-1.21a.757.757 0 00-.714.474.77.77 0 00-.056.296v34.61a.757.757 0 00.476.705.757.757 0 00.294.055H208a.757.757 0 00.711-.467.757.757 0 00.059-.293V.77a.77.77 0 00-.223-.548A.752.752 0 00208 0zM223 9.48a9.87 9.87 0 00-5.59 1.71 11.515 11.515 0 00-4 4.7 14.907 14.907 0 00-1.41 6.53v1a14.343 14.343 0 001.48 6.5c.933 1.9 2.364 3.51 4.14 4.66a10.62 10.62 0 005.83 1.71 9.998 9.998 0 008.67-4.29.773.773 0 00-.18-1.06l-.86-.61a.77.77 0 00-1.05.15 7.71 7.71 0 01-2.78 2.3 9.001 9.001 0 01-3.85.74 7.81 7.81 0 01-4.34-1.31 9.128 9.128 0 01-3.18-3.67 11.474 11.474 0 01-1.17-5.16v-.55h17.5a.769.769 0 00.77-.77v-1.27c.125-2.97-.871-5.88-2.79-8.15A9.286 9.286 0 00223 9.48zm-8.06 10.61a10.265 10.265 0 012.58-5.45 7.176 7.176 0 015.48-2.41 6.659 6.659 0 013.7 1.06 7.403 7.403 0 012.61 3 9.552 9.552 0 011 3.79l-15.37.01zM263.55 9.71a10.64 10.64 0 00-5.87 1.68 9.909 9.909 0 00-2.9 2.83 6.506 6.506 0 00-2.32-3 10.14 10.14 0 00-11 .28 10.09 10.09 0 00-2.32 2.29v-2.87a.772.772 0 00-.77-.76h-1.24a.762.762 0 00-.77.76V35.3a.771.771 0 00.223.547.752.752 0 00.547.223h1.24a.773.773 0 00.77-.77V20c.306-1.559.94-3.035 1.86-4.33a6.997 6.997 0 015.93-3.21c2.07 0 3.58.51 4.48 1.53a7.378 7.378 0 011.42 5V35.3a.771.771 0 00.223.547.752.752 0 00.547.223h1.22a.757.757 0 00.705-.476.758.758 0 00.055-.294V19.15a6.792 6.792 0 011.47-3.46 7.7 7.7 0 016.43-3.23c2.09 0 3.53.5 4.46 1.6.93 1.1 1.43 3 1.43 5.44v15.8a.771.771 0 00.223.547.752.752 0 00.547.223h1.21a.756.756 0 00.714-.474.771.771 0 00.056-.296V19.39c0-3.15-.73-5.56-2.13-7.19-1.4-1.63-3.61-2.49-6.45-2.49M286.47 9.48a9.87 9.87 0 00-5.59 1.71 11.515 11.515 0 00-4 4.7 14.902 14.902 0 00-1.43 6.53v1a14.343 14.343 0 001.48 6.5c.933 1.9 2.364 3.51 4.14 4.66a10.62 10.62 0 005.83 1.71 9.996 9.996 0 008.74-4.29.757.757 0 00.125-.57.749.749 0 00-.315-.49l-.85-.61a.77.77 0 00-1.05.15 7.791 7.791 0 01-2.78 2.3 9 9 0 01-3.85.74 7.81 7.81 0 01-4.34-1.31 9.128 9.128 0 01-3.18-3.67 11.502 11.502 0 01-1.17-5.16v-.55h17.5a.782.782 0 00.77-.77v-1.27c.125-2.97-.871-5.88-2.79-8.15a9.303 9.303 0 00-7.24-3.16zm-8.07 10.61a10.337 10.337 0 012.6-5.45 7.176 7.176 0 015.48-2.41 6.659 6.659 0 013.7 1.06 7.475 7.475 0 012.61 3 9.552 9.552 0 011 3.79l-15.39.01zM310.58 9.66a9.491 9.491 0 00-5.58 1.79 10.79 10.79 0 00-2.3 2.23v-2.8a.768.768 0 00-.77-.77h-1.21a.773.773 0 00-.77.77v24.38a.771.771 0 00.77.77h1.21a.769.769 0 00.77-.77V19.75a10.599 10.599 0 012.89-5.31 6.794 6.794 0 014.93-2c2 0 3.52.54 4.41 1.6.89 1.06 1.41 2.89 1.42 5.3v15.92a.771.771 0 00.77.77h1.22a.782.782 0 00.77-.77V19.35c0-3.16-.73-5.58-2.12-7.2-1.39-1.62-3.57-2.49-6.4-2.49M334.29 33.35c-2.45.35-3.84.25-4.49-.71a6.292 6.292 0 01-.71-3.4V12.68h4.77a.77.77 0 00.77-.76V10.7a.771.771 0 00-.77-.77h-4.77V4.12a.78.78 0 00-.77-.77h-1.24a.769.769 0 00-.77.77v5.81h-3.74a.769.769 0 00-.77.77v1.22a.772.772 0 00.77.76h3.74V29.4a8.327 8.327 0 001.33 5.12 5.268 5.268 0 004.42 1.78 8.998 8.998 0 002.81-.32.772.772 0 00.49-.86l-.2-1.15a.772.772 0 00-.87-.62zM355.29 25.56a7.373 7.373 0 00-2.84-2.56 20.615 20.615 0 00-5-1.71 22.21 22.21 0 01-4.43-1.4 5.367 5.367 0 01-2-1.46 3.515 3.515 0 01-.54-2.12 3.435 3.435 0 011.56-2.87 7.58 7.58 0 014.61-1.25 7.759 7.759 0 014.93 1.48 4.273 4.273 0 011.78 3.5.77.77 0 00.223.547.75.75 0 00.547.223h1.24a.769.769 0 00.77-.77 6.883 6.883 0 00-2.68-5.68 10.74 10.74 0 00-6.81-2 10.25 10.25 0 00-6.36 1.89 6.116 6.116 0 00-2.57 5 5.994 5.994 0 002.05 4.76c1.3 1.11 3.48 2 6.68 2.66 4.68 1 7 2.72 7 5.29a3.707 3.707 0 01-1.74 3.06 7.89 7.89 0 01-4.84 1.37 9.15 9.15 0 01-5.21-1.29 4.252 4.252 0 01-1.93-3.42.77.77 0 00-.77-.72h-1.22a.77.77 0 00-.76.77 6.481 6.481 0 002.82 5.41 11.66 11.66 0 007.07 2c2.365.1 4.698-.57 6.65-1.91a6.254 6.254 0 002.68-5.26 6.756 6.756 0 00-.9-3.57" fill="#80B341"/></g><defs><clipPath id="clip0"><path fill="#fff" d="M0 0h356.19v36.3H0z"/></clipPath></defs></svg>
