<svg width="178" height="34" viewBox="0 0 178 34" fill="none" xmlns="http://www.w3.org/2000/svg"><g clip-path="url(#clip0)"><path d="M45.64 6.93c-7.58 0-13.08 5.64-13.08 13.4 0 7.76 5.44 13.29 13.34 13.29a12.75 12.75 0 009.61-3.79 2.81 2.81 0 00.83-1.83 2.143 2.143 0 00-1.378-2.052 2.14 2.14 0 00-.862-.138 2.59 2.59 0 00-1.83.83 8.75 8.75 0 01-6.37 2.67 7.9 7.9 0 01-8-7.38H55c1.86 0 2.77-.87 2.77-2.66a9.627 9.627 0 00-.11-1.66c-.92-6.71-5.42-10.68-12.02-10.68zm0 4.16c4.11 0 6.75 2.62 6.91 6.84H37.89a7.64 7.64 0 017.75-6.84zM74.12 6.93a9.3 9.3 0 00-8.19 4.73V10c0-2.63-2-2.76-2.45-2.76A2.44 2.44 0 0061 10v20.49a2.62 2.62 0 105.22 0v-11c0-4.78 2.71-8.13 6.59-8.13s5.6 2.47 5.6 7.55v11.58a2.621 2.621 0 003.672 2.673 2.62 2.62 0 001.538-2.673V17.26c-.02-4.99-2.51-10.33-9.5-10.33zM107.2 7.2a2.719 2.719 0 00-2.6 2.08l-7.14 17.94-7.08-17.94a2.76 2.76 0 00-2.65-2.08 2.56 2.56 0 00-2.61 2.5c.004.508.117 1.01.33 1.47l8.2 19.36c1 2.34 2.58 2.83 3.76 2.83 1.18 0 2.78-.49 3.76-2.82l8.26-19.47c.197-.452.306-.937.32-1.43a2.436 2.436 0 00-.753-1.765A2.434 2.434 0 00107.2 7.2zM122.36 6.93a14.9 14.9 0 00-8.74 2.61 2.39 2.39 0 00-1.17 2.06 1.99 1.99 0 00.557 1.466 2.002 2.002 0 001.443.614 2.838 2.838 0 001.55-.55 10.252 10.252 0 015.86-1.94c3.85 0 6.06 2 6.06 5.38v.57c-8.65 0-17.45 1.06-17.45 8.59 0 5.42 4.63 7.84 9.22 7.84a9.722 9.722 0 008.44-4.19v1.32a2.404 2.404 0 001.451 2.472c.316.133.657.197.999.188A2.35 2.35 0 00133 30.7V16.89c0-6.24-4-9.96-10.64-9.96zm4.5 14.07H128v1.2c0 4.4-2.79 7.23-7.12 7.23-1.18 0-5-.27-5-3.79-.06-4.18 6.24-4.64 10.98-4.64zM146.54 11.93a2.114 2.114 0 002.223-1.243c.122-.28.183-.582.177-.887a2.129 2.129 0 00-2.4-2.18h-4.69V2.87a2.61 2.61 0 00-.65-2.016 2.607 2.607 0 00-1.935-.863 2.598 2.598 0 00-2.585 2.879v22.54c0 5.2 2.57 8 7.42 8a8.202 8.202 0 003.29-.6 2.34 2.34 0 001.44-2.06 2.014 2.014 0 00-.135-.81 2.014 2.014 0 00-1.136-1.135 1.999 1.999 0 00-.809-.135c-.315.016-.628.07-.93.16a4.344 4.344 0 01-1.08.16c-2 0-2.89-1.29-2.89-4.06v-13h4.69zM163.78 6.93c-7.88 0-13.61 5.59-13.61 13.29a13.281 13.281 0 003.91 9.63 13.75 13.75 0 009.7 3.77c7.79 0 13.67-5.76 13.67-13.4 0-7.64-5.75-13.29-13.67-13.29zm0 22.27c-5.41 0-8.23-4.51-8.23-9 0-6.13 4.27-8.92 8.23-8.92 3.96 0 8.22 2.81 8.22 8.94 0 6.13-4.25 8.98-8.22 8.98z" fill="#141614"/><path d="M23.64 4.56C19.45-.35 5.89 9.16 6 21.42a.58.58 0 01-.57.57.58.58 0 01-.49-.28 13.13 13.13 0 01-.52-9.65.53.53 0 00-.9-.52A13 13 0 000 20.43a13 13 0 0013.15 13.15c18.5-.42 14.23-24.64 10.49-29.02z" fill="#80B341"/></g><defs><clipPath id="clip0"><path fill="#fff" d="M0 0h177.45v33.62H0z"/></clipPath></defs></svg>
