<svg width="28" height="28" viewBox="0 0 28 28" fill="none" xmlns="http://www.w3.org/2000/svg"><path d="M27.333 20a.667.667 0 00-.666-.667H26V6a2.667 2.667 0 00-2.667-2.667h-8v-2a.667.667 0 00-.666-.666h-1.334a.667.667 0 00-.666.666v2h-8A2.667 2.667 0 002 6v13.333h-.667A.667.667 0 00.667 20v1.333c0 .369.298.667.666.667h6.414l-2.894 4.133a1.013 1.013 0 00-.186.574V27c0 .184.149.333.333.333h1.573c.437 0 .845-.214 1.094-.573L11 22h6l3.333 4.76c.249.358.657.573 1.094.573H23c.184 0 .333-.149.333-.333v-.293a1.014 1.014 0 00-.186-.574L20.253 22h6.414a.667.667 0 00.666-.667V20zm-4-.667H4.667V6h18.666v13.333zM8 16.667h6.667a.667.667 0 00.666-.667v-1.333a.667.667 0 00-.666-.667H8a.667.667 0 00-.667.667V16c0 .368.299.667.667.667zm0-5.334h12a.667.667 0 00.667-.666V9.333A.667.667 0 0020 8.667H8a.667.667 0 00-.667.666v1.334c0 .368.299.666.667.666z" fill="#A1A1A3"/></svg>
