<svg width="311" height="37" viewBox="0 0 311 37" fill="none" xmlns="http://www.w3.org/2000/svg"><g clip-path="url(#clip0)"><path d="M45.64 10c-7.58 0-13.08 5.64-13.08 13.4 0 7.76 5.44 13.26 13.34 13.26a12.72 12.72 0 009.61-3.8 2.79 2.79 0 00.83-1.86 2.141 2.141 0 00-2.24-2.2 2.58 2.58 0 00-1.83.82 8.75 8.75 0 01-6.37 2.67 7.9 7.9 0 01-8-7.38H55c1.86 0 2.77-.87 2.77-2.66a9.667 9.667 0 00-.11-1.66C56.74 13.94 52.24 10 45.64 10zm0 4.16c4.11 0 6.75 2.62 6.91 6.85H37.89a7.64 7.64 0 017.75-6.89v.04zM74.12 10a9.3 9.3 0 00-8.19 4.73V13c0-2.63-2-2.76-2.45-2.76A2.442 2.442 0 0061 13v20.52a2.62 2.62 0 105.22 0v-11c0-4.79 2.71-8.13 6.59-8.13s5.6 2.46 5.6 7.54v11.59a2.621 2.621 0 003.672 2.673 2.62 2.62 0 001.538-2.673V20.29C83.6 15.3 81.11 10 74.12 10zM107.2 10.23a2.719 2.719 0 00-2.6 2.08l-7.14 18-7.08-18a2.76 2.76 0 00-2.65-2.08 2.56 2.56 0 00-2.61 2.5 3.63 3.63 0 00.33 1.48l8.2 19.36c1 2.33 2.58 2.82 3.76 2.82 1.18 0 2.78-.49 3.76-2.82l8.26-19.47a3.82 3.82 0 00.32-1.42 2.46 2.46 0 00-.752-1.769 2.46 2.46 0 00-1.798-.681zM122.36 10a14.832 14.832 0 00-8.74 2.62 2.382 2.382 0 00-1.17 2.05 1.99 1.99 0 00.557 1.466 2.002 2.002 0 001.443.614 2.76 2.76 0 001.55-.55 10.24 10.24 0 015.86-1.93c3.85 0 6.06 2 6.06 5.38v.56c-8.65 0-17.45 1.06-17.45 8.59 0 5.42 4.63 7.84 9.22 7.84a9.701 9.701 0 008.44-4.19v1.32a2.395 2.395 0 00.617 1.89 2.387 2.387 0 001.833.77 2.35 2.35 0 002.42-2.7V19.92c0-6.23-4-9.92-10.64-9.92zm4.5 14H128v1.2c0 4.4-2.79 7.24-7.12 7.24-1.18 0-5-.28-5-3.8-.06-4.15 6.24-4.64 10.98-4.64zM146.54 15a2.17 2.17 0 100-4.32h-4.69V5.91a2.61 2.61 0 00-.65-2.016 2.607 2.607 0 00-1.935-.863 2.598 2.598 0 00-2.585 2.879v22.53c0 5.2 2.57 8 7.42 8a8.38 8.38 0 003.29-.59 2.349 2.349 0 001.44-2.07 2.013 2.013 0 00-.135-.81 2.014 2.014 0 00-1.136-1.135 1.999 1.999 0 00-.809-.135 3.552 3.552 0 00-.93.17 4.265 4.265 0 01-1.08.15c-2 0-2.89-1.29-2.89-4.06V15h4.69zM163.78 10c-7.88 0-13.61 5.59-13.61 13.3a13.257 13.257 0 003.91 9.62 13.72 13.72 0 009.7 3.78c7.79 0 13.67-5.76 13.67-13.4 0-7.64-5.75-13.3-13.67-13.3zm0 22.28c-5.41 0-8.23-4.52-8.23-9 0-6.14 4.27-8.93 8.23-8.93 3.96 0 8.22 2.77 8.22 8.91 0 6.14-4.25 8.98-8.22 8.98v.04z" fill="#141614"/><path d="M23.64 7.59C19.45 2.68 5.89 12.2 6 24.45a.57.57 0 01-1.06.29 12.94 12.94 0 01-1.2-5.46 13.19 13.19 0 01.68-4.19.53.53 0 00-.9-.52 13.14 13.14 0 009.67 22C31.65 36.2 27.38 12 23.64 7.59zM216.65 12.14a6.753 6.753 0 00-2.77-1.81 11.61 11.61 0 00-6.86-.06c-.978.307-1.907.752-2.76 1.32a10.266 10.266 0 00-2.17 2 8.862 8.862 0 00-.53.73 6.59 6.59 0 00-2.33-3 10.32 10.32 0 00-8.61-1 9.997 9.997 0 00-4.71 3.53V11a.771.771 0 00-.76-.77h-1.24a.769.769 0 00-.77.77v24.39a.765.765 0 00.226.544.766.766 0 00.544.226h1.24a.77.77 0 00.76-.77V20.05a13.05 13.05 0 01.78-2.4c.385-.9.901-1.74 1.53-2.49a8.004 8.004 0 012.32-1.91 6.512 6.512 0 013.17-.73 9.176 9.176 0 012.47.31 4.2 4.2 0 011.79 1 4.919 4.919 0 011.19 2c.33 1.088.482 2.223.45 3.36v16.2a.782.782 0 00.77.77h1.22a.782.782 0 00.77-.77V19.21c.033-.427.124-.848.27-1.25a8.07 8.07 0 01.69-1.47 9.695 9.695 0 011.1-1.47c.436-.48.933-.9 1.48-1.25a8.126 8.126 0 012-.9 8.49 8.49 0 012.41-.35h.15a8.34 8.34 0 012.29.31 4.13 4.13 0 011.79 1.06A5.253 5.253 0 01215.7 16a12.1 12.1 0 01.46 3.61v15.78a.765.765 0 00.226.544.766.766 0 00.544.226h1.21a.774.774 0 00.711-.475.765.765 0 00.059-.295V19.61a15.11 15.11 0 00-.56-4.37 8.125 8.125 0 00-1.7-3.1zM241.32 34.13c-.07-.34-.13-.71-.18-1.1-.05-.39-.09-.82-.12-1.26-.03-.44 0-.87 0-1.29V18.26a9.008 9.008 0 00-.71-3.68 7.303 7.303 0 00-2-2.69 8.576 8.576 0 00-3-1.59 13 13 0 00-7.57.1 9.999 9.999 0 00-3.1 1.68 7.935 7.935 0 00-2.07 2.53 6.614 6.614 0 00-.75 3.06.757.757 0 00.74.77h1.22a.79.79 0 00.8-.77 3.995 3.995 0 01.5-2 5.232 5.232 0 011.44-1.65A7.53 7.53 0 01228.7 13a9.62 9.62 0 012.85-.41 7.399 7.399 0 015 1.5 5.207 5.207 0 011.66 4.17V21h-5.06a19.578 19.578 0 00-4.93.57 12.428 12.428 0 00-3.79 1.64 7.755 7.755 0 00-2.43 2.63 6.871 6.871 0 00-.86 3.37 7.482 7.482 0 00.59 3c.392.902.972 1.71 1.7 2.37a7.645 7.645 0 002.57 1.5c1.079.363 2.212.543 3.35.53a13.682 13.682 0 003.51-.42c1-.26 1.964-.642 2.87-1.14a11.128 11.128 0 002.27-1.69l.28-.29v.32c.055.746.178 1.486.37 2.21a.775.775 0 00.74.56h1.4a.774.774 0 00.544-.226.764.764 0 00.226-.544v-.2a.804.804 0 00-.06-.31 3.721 3.721 0 01-.18-.75zm-11.93-.25a6.528 6.528 0 01-2.28-.38 5.297 5.297 0 01-1.74-1 4.333 4.333 0 01-1.11-1.45 3.998 3.998 0 01-.39-1.75 4 4 0 01.59-2.13 5.451 5.451 0 011.76-1.75 9.724 9.724 0 012.95-1.19 16.638 16.638 0 014.05-.44h5v4.85a9.282 9.282 0 01-1.33 2.09 8.775 8.775 0 01-1.95 1.69c-.77.485-1.61.85-2.49 1.08-.999.26-2.028.388-3.06.38zM256.35 10.08a4.4 4.4 0 00-.87-.22 7.451 7.451 0 00-1.12-.08 8.83 8.83 0 00-5.44 1.64 9.147 9.147 0 00-1.74 1.72V11a.782.782 0 00-.77-.77h-1.22a.782.782 0 00-.77.77v24.39a.782.782 0 00.77.77h1.22a.782.782 0 00.77-.77V19.48c.168-.962.457-1.9.86-2.79a7.88 7.88 0 011.49-2.21 6.436 6.436 0 012.1-1.44 6.78 6.78 0 012.73-.52c.246-.015.494-.015.74 0l.75.08a.75.75 0 00.56-.15.82.82 0 00.3-.51l.13-1.09a.765.765 0 00-.49-.77zM266.57 21.46l10.66-9.89a.782.782 0 00.183-.847.781.781 0 00-.713-.493H275a.78.78 0 00-.52.21L263.35 20.7l-1.56 1.48V.77A.768.768 0 00261 0h-1.2a.769.769 0 00-.77.77v34.62a.782.782 0 00.77.77h1.2a.782.782 0 00.77-.77v-9.74l2.73-2.35 10.72 12.59a.778.778 0 00.59.27h1.6a.768.768 0 00.76-.77.748.748 0 00-.3-.61l-11.3-13.32z" fill="#80B341"/><path d="M294.89 12.92a9.343 9.343 0 00-3.19-2.32 10.22 10.22 0 00-8.35.16 10.662 10.662 0 00-3.5 2.71 12.995 12.995 0 00-2.33 4.09 15.085 15.085 0 00-.86 5.16v1c-.017 1.755.281 3.5.88 5.15.556 1.5 1.391 2.88 2.46 4.07a11.334 11.334 0 003.64 2.7 10.66 10.66 0 004.49 1 12.735 12.735 0 002.87-.34 10.815 10.815 0 002.4-.88 9.047 9.047 0 001.95-1.36 9.666 9.666 0 001.52-1.73.777.777 0 00-.19-1.06l-.86-.61a.76.76 0 00-1.05.16 8.268 8.268 0 01-1.46 1.49 7.004 7.004 0 01-1.57.93 7.548 7.548 0 01-1.7.49 9 9 0 01-5.3-.63 8.629 8.629 0 01-2.8-2.1 10.23 10.23 0 01-1.85-3.23 11.699 11.699 0 01-.68-4v-.56h17.51a.762.762 0 00.77-.77V21a13.167 13.167 0 00-.73-4.49 10.585 10.585 0 00-2.07-3.59zm-4.26.27a7.003 7.003 0 012.29 1.81 8.335 8.335 0 011.49 2.66c.3.891.475 1.82.52 2.76h-15.34c.15-.903.405-1.786.76-2.63a9.886 9.886 0 011.77-2.79 7.696 7.696 0 012.47-1.82 7.35 7.35 0 016.04.01zM310.33 34.29a.78.78 0 00-.87-.63c-.41.06-.79.11-1.14.14a6.56 6.56 0 01-2.36-.11 1.873 1.873 0 01-.82-.52 3.257 3.257 0 01-.62-1.24 8.488 8.488 0 01-.27-2.38V13H309a.773.773 0 00.77-.77V11a.78.78 0 00-.77-.77h-4.78V4.42a.771.771 0 00-.77-.77h-1.23a.769.769 0 00-.77.77v5.81h-3.74a.77.77 0 00-.71.77v1.24a.771.771 0 00.223.547.752.752 0 00.547.223h3.74v16.54a12.527 12.527 0 00.36 3.25 5.626 5.626 0 001.13 2.25 4.27 4.27 0 001.91 1.23 7.67 7.67 0 002.33.33h.59l.74-.05.73-.08c.256-.034.507-.094.75-.18a.75.75 0 00.49-.85l-.21-1.16z" fill="#80B341"/></g><defs><clipPath id="clip0"><path fill="#fff" d="M0 0h310.54v36.66H0z"/></clipPath></defs></svg>
