<svg width="357" height="51" viewBox="0 0 357 51" fill="none" xmlns="http://www.w3.org/2000/svg"><g clip-path="url(#clip0)"><path fill-rule="evenodd" clip-rule="evenodd" d="M178.13 12.74h7.7l-.59 2.76h-7.7l-4.28 19.66a14.497 14.497 0 00-.33 2.69c0 2.49 1.58 3.71 4.08 3.71a11.5 11.5 0 005.53-1.6l-.54 2.88a12.438 12.438 0 01-6 1.54c-4.08 0-6.91-2.11-6.91-5.89a17.02 17.02 0 01.39-3.14l4.35-19.85h-4.61l.59-2.76h4.61l1.84-8.26 4-1.53-2.13 9.79zm-20.81 0h7.84l-5.53 25.49a12.048 12.048 0 00-.33 2.05c0 .83.53 1.35 1.58 1.35a5.736 5.736 0 002.76-.84l-.59 2.63a7.002 7.002 0 01-3.55 1c-2.57 0-3.95-1.41-3.95-3.59.036-.799.147-1.592.33-2.37l5-22.92h-4.15l.59-2.8zm10.28-9.22a3.44 3.44 0 01-3.3 3.08 2 2 0 01-2-2 3.25 3.25 0 013.16-3 2.057 2.057 0 012.14 1.92zm-24.74 17.23c0-1.73-1.12-3-3.29-3-4.41 0-8.1 4.42-9.55 9.16a19.71 19.71 0 003.56.38c6.06-.01 9.28-2.83 9.28-6.54zm8 0c0 6.47-6.52 11.59-16.07 11.59a28.145 28.145 0 01-5.79-.58c0 .26-.07.52-.07.71 0 4 2.7 6.21 6.65 6.21 3.875-.2 7.646-1.32 11-3.27l-1.25 6a25.628 25.628 0 01-11.92 3c-7.57 0-13.24-3.78-13.24-11.53 0-10.57 8.63-20.68 20.15-20.68 6.1-.03 10.58 2.85 10.58 8.55h-.04zm-31 .38a11.05 11.05 0 01-.2 1.73l-8.42.19c.079-.442.123-.89.13-1.34 0-2.11-.79-4-3.29-4-2.7 0-5 2-6.59 4.48a21.13 21.13 0 00-3.09 10.5c0 4 2.3 6 6.52 6a23.32 23.32 0 0010.86-3.33l-1.32 5.95a22.81 22.81 0 01-11.26 3.08c-7.7 0-13.63-3.52-13.63-11.59 0-10.7 7.91-20.62 19.23-20.62 6.66-.01 11.07 3.45 11.07 8.95h-.01zm-44.72 9.8L78 18.06a4 4 0 00-2-.51c-7.64 0-12.51 9-12.51 15.49 0 3.65 1.52 5.57 4.48 5.57a6.189 6.189 0 004.81-2 12.86 12.86 0 002.37-5.68h-.01zm8-17l4.74-1.22-5 22.74c-.132.569-.22 1.147-.26 1.73 0 .83.46 1.28 1.45 1.28a7.53 7.53 0 003-.9l-1 4.87a12.26 12.26 0 01-6.19 1.66c-2.64 0-4.88-1.15-5.47-3.39a12.228 12.228 0 01-9.15 3.65c-6.59 0-10.6-4.23-10.6-11.08a21.24 21.24 0 0121.48-21.1A14.3 14.3 0 0183.19 14l-.05-.07zm-41-14h13l-7.72 35.8a11.203 11.203 0 00-.26 1.73c0 .83.52 1.28 1.51 1.28a7.36 7.36 0 002.9-.89l-1.06 4.86a12.11 12.11 0 01-6.19 1.67c-3.48 0-6-1.54-6-5.25.022-1.167.176-2.328.46-3.46L45.18 6H40.9l1.24-6.07zM29 14.54a4.649 4.649 0 00-1.32-3.65c-1.19-1-3.09-1.41-6-1.41h-5.09l-3.36 15.3H17c4.21 0 6.91-.89 8.75-2.5A10.32 10.32 0 0029 14.54zm9.45-.54a15.511 15.511 0 01-5.73 12.24c-3.49 2.81-8.29 4.16-14.42 4.16h-6.25l-2.9 13.4H0L7.44 9.48H2.83l1.32-6.21h18.5c5.79 0 9.75.83 12.44 2.94 2.24 1.73 3.36 4.23 3.36 7.79zM196.54 42.74A4.149 4.149 0 01194 42a3.189 3.189 0 01-1.21-2.06l1.53-6.74a5.24 5.24 0 012.12-2.46 5.998 5.998 0 013.31-1 2.94 2.94 0 011.84.55 2.81 2.81 0 011 1.67c.201.855.245 1.74.13 2.61l-.26 1.43-.06.27a10.85 10.85 0 01-2.31 4.83 4.625 4.625 0 01-3.55 1.64zm7.71-6.6a16.49 16.49 0 00.25-1.77 8.873 8.873 0 00-.31-3.27 4.423 4.423 0 00-1.63-2.37 4.728 4.728 0 00-2.78-.81 7 7 0 00-3.34.84 7.978 7.978 0 00-1.47 1l1.64-7.27a.457.457 0 00-.09-.41.47.47 0 00-.38-.19h-.76a.54.54 0 00-.52.42l-4.68 21.31a.49.49 0 00.09.41.457.457 0 00.38.18h.77a.522.522 0 00.51-.41l.26-1.11c.348.43.776.79 1.26 1.06.918.504 1.952.76 3 .74a6.42 6.42 0 004.67-2 11.887 11.887 0 002.88-5.42l.25-.93zM219.58 28.46a.498.498 0 00-.43-.25h-.86a.549.549 0 00-.46.26l-7.58 12.64-2.2-12.53a.479.479 0 00-.48-.39h-.81a.533.533 0 00-.4.19.498.498 0 00-.12.42l2.63 14.68-1.37 2.32-.59.89a3.613 3.613 0 01-2.91 1.83 5.386 5.386 0 01-.87-.12.521.521 0 00-.39.1.548.548 0 00-.22.34l-.11.72a.477.477 0 00.35.55c.41.114.834.171 1.26.17a4.749 4.749 0 002.72-.91 8.8 8.8 0 002.39-2.89L219.56 29a.518.518 0 000-.51" fill="#141614"/><path d="M259.23 25c-5.57 0-9.62 4.14-9.62 9.84a10 10 0 0016.87 7 2.06 2.06 0 00.61-1.38 1.566 1.566 0 00-1.011-1.499 1.565 1.565 0 00-.629-.101 1.923 1.923 0 00-1.35.6 6.457 6.457 0 01-4.68 2 5.802 5.802 0 01-5.89-5.42h12.58c1.37 0 2-.64 2-2a7.116 7.116 0 00-.08-1.22c-.64-4.95-3.95-7.82-8.8-7.82zm0 3.05c3 0 5 1.93 5.08 5h-10.78a5.628 5.628 0 015.7-5.05v.05zM280.16 25a6.839 6.839 0 00-6 3.47v-1.3c.027-.255 0-.513-.08-.757a1.818 1.818 0 00-.996-1.106 1.83 1.83 0 00-2.484 1.106c-.08.244-.107.502-.08.757v15.09a1.938 1.938 0 00.488 1.49 1.934 1.934 0 001.432.636 1.931 1.931 0 001.92-2.126v-8.09c0-3.52 2-6 4.84-6s4.11 1.81 4.11 5.54v8.52a1.938 1.938 0 00.488 1.49 1.934 1.934 0 001.432.636 1.931 1.931 0 001.92-2.126v-9.69c-.02-3.67-1.85-7.54-6.99-7.54zM304.47 25.14a1.998 1.998 0 00-1.91 1.53l-5.25 13.19-5.2-13.19a2.001 2.001 0 00-1.95-1.53 1.893 1.893 0 00-1.765 1.139 1.903 1.903 0 00-.155.721c.003.373.084.741.24 1.08l6 14.23a2.876 2.876 0 002.765 2.074 2.879 2.879 0 002.765-2.074l6.1-14.31c.137-.317.218-.655.24-1a1.787 1.787 0 00-.533-1.341 1.8 1.8 0 00-1.347-.519zM315.61 25a11 11 0 00-6.43 1.92 1.746 1.746 0 00-.85 1.51 1.487 1.487 0 00.91 1.413c.184.077.381.117.58.117a2.07 2.07 0 001.18-.46 7.51 7.51 0 014.3-1.42c2.84 0 4.46 1.44 4.46 4v.42c-6.36 0-12.83.78-12.83 6.31 0 4 3.41 5.77 6.78 5.77a7.165 7.165 0 006.21-3.08v1a1.764 1.764 0 001.053 1.86c.236.1.491.148.747.14a1.738 1.738 0 001.672-1.259 1.75 1.75 0 00.048-.741V32.27c-.04-4.59-2.95-7.27-7.83-7.27zm3.31 10.32h.8v.88a4.942 4.942 0 01-5.23 5.32c-.87 0-3.69-.2-3.69-2.79 0-3.11 4.63-3.46 8.12-3.46v.05zM333.38 28.62a1.54 1.54 0 001.76-1.56 1.553 1.553 0 00-.506-1.214 1.552 1.552 0 00-1.254-.396h-3.45V22a1.904 1.904 0 00-.462-1.502 1.918 1.918 0 00-1.433-.647A1.91 1.91 0 00326.14 22v16.53c0 3.82 1.88 5.84 5.45 5.84a5.93 5.93 0 002.41-.44 1.698 1.698 0 001.06-1.52 1.468 1.468 0 00-1.52-1.52c-.234.009-.466.05-.69.12-.258.07-.523.108-.79.11-1.45 0-2.13-.95-2.13-3v-9.5h3.45zM346.05 25c-5.79 0-10 4.1-10 9.77a9.778 9.778 0 002.87 7.07 10.12 10.12 0 007.13 2.77 9.73 9.73 0 0010.05-9.84c0-5.72-4.23-9.77-10.05-9.77zm0 16.36c-4 0-6.05-3.31-6.05-6.59 0-4.51 3.14-6.56 6.05-6.56 2.91 0 6.06 2.05 6.06 6.56s-3.11 6.54-6.06 6.54v.05z" fill="#141614"/><path d="M243.06 23.2c-3.08-3.61-13.05 3.39-13 12.39a.42.42 0 01-.42.42.41.41 0 01-.36-.2 9.645 9.645 0 01-.89-4 9.405 9.405 0 01.51-3.07.397.397 0 00-.183-.455.402.402 0 00-.487.065 9.628 9.628 0 00-2.55 6.54 9.52 9.52 0 002.784 6.876 9.51 9.51 0 006.876 2.784c13.66-.32 10.47-18.13 7.72-21.35z" fill="#80B341"/></g><defs><clipPath id="clip0"><path fill="#fff" d="M0 0h356.1v50.28H0z"/></clipPath></defs></svg>
