<svg width="30" height="30" viewBox="0 0 30 30" fill="none" xmlns="http://www.w3.org/2000/svg"><path d="M24.333 21.667V3A2.667 2.667 0 0021.667.333H3A2.667 2.667 0 00.333 3v18.667A2.667 2.667 0 003 24.333h18.667a2.667 2.667 0 002.666-2.666zM9 7a2 2 0 110 4 2 2 0 010-4zm11.333 12.667a.667.667 0 01-.666.666H5a.667.667 0 01-.667-.666v-.44a.68.68 0 01.134-.4l3.16-4.227a.68.68 0 011.08 0l1.333 1.813a.667.667 0 001.053 0l3.054-3.84a.667.667 0 011.04 0l4.986 6.227a.694.694 0 01.147.427l.013.44zm6.667-14v18.666A2.667 2.667 0 0124.333 27H5.667a2.667 2.667 0 002.666 2.667h16a5.333 5.333 0 005.334-5.334v-16A2.667 2.667 0 0027 5.667z" fill="#A1A1A3"/></svg>
