<svg width="28" height="20" viewBox="0 0 28 20" fill="none" xmlns="http://www.w3.org/2000/svg"><path d="M19.333 3.333v13.334h-16V3.333h16zm0-2.666h-16A2.667 2.667 0 00.667 3.333v13.334a2.667 2.667 0 002.666 2.666h16A2.667 2.667 0 0022 16.667v-4l3.613 3.613c.249.246.584.385.934.387h.12a.667.667 0 00.666-.667V4a.667.667 0 00-.666-.667h-.12c-.35.002-.685.14-.934.387L22 7.333v-4A2.667 2.667 0 0019.333.667zM6.667 8.507A.667.667 0 016 7.84V6.827c0-.369.298-.667.667-.667H12c.368 0 .667.298.667.667V7.84a.667.667 0 01-.667.667H6.667z" fill="#A1A1A3"/></svg>
