<svg width="28" height="22" viewBox="0 0 28 22" fill="none" xmlns="http://www.w3.org/2000/svg"><path d="M24.667.333H3.333A2.667 2.667 0 00.667 3v16a2.667 2.667 0 002.666 2.667h21.334A2.667 2.667 0 0027.333 19V3A2.667 2.667 0 0024.667.333zm0 18.667H3.333V5.667h21.334V19zm-18-2.667H12a.667.667 0 00.667-.666V9A.667.667 0 0012 8.333H6.667A.667.667 0 006 9v6.667c0 .368.298.666.667.666zM16 11h5.333a.667.667 0 00.667-.667V9a.667.667 0 00-.667-.667H16a.667.667 0 00-.667.667v1.333c0 .368.299.667.667.667zm0 5.333h2.667a.667.667 0 00.666-.666v-1.334a.667.667 0 00-.666-.666H16a.667.667 0 00-.667.666v1.334c0 .368.299.666.667.666z" fill="#A1A1A3"/></svg>
